<?xml version="1.0" encoding="utf-8"?>
<!-- Generator: Adobe Illustrator 24.0.3, SVG Export Plug-In . SVG Version: 6.00 Build 0)  -->
<svg version="1.1" id="Layer_1" xmlns="http://www.w3.org/2000/svg" xmlns:xlink="http://www.w3.org/1999/xlink" x="0px" y="0px"
	 viewBox="0 0 1400 900" enable-background="new 0 0 1400 900" xml:space="preserve">
<title>bigcloud1</title>
<g id="sky_layer_1">
	<g>
		
			<ellipse transform="matrix(0.2318 -0.9728 0.9728 0.2318 304.702 1492.1901)" fill="#B2A89D" cx="1097.12" cy="553.17" rx="206.28" ry="178.1"/>
		<ellipse fill="#B2A89D" cx="815.35" cy="330.7" rx="279.93" ry="292.7"/>
		
			<radialGradient id="SVGID_1_" cx="940.3174" cy="-781.8877" r="190.186" fx="999.2283" fy="-766.0469" gradientTransform="matrix(0.846 0.534 0.757 -1.2 559.1541 -953.766)" gradientUnits="userSpaceOnUse">
			<stop  offset="0.585" style="stop-color:#F8F8F8;stop-opacity:0"/>
			<stop  offset="0.677" style="stop-color:#F8F8F8;stop-opacity:0"/>
			<stop  offset="0.936" style="stop-color:#E8E8E8;stop-opacity:0.3"/>
		</radialGradient>
		<path fill="url(#SVGID_1_)" d="M595,425.5c2.06-9.34,4.77-18.52,8.12-27.47c33.41-85.42,129.73-127.57,215.15-94.17
			c35.26,13.79,64.75,39.22,83.58,72.07C693.3,262.43,699.14,524.77,637.59,535.77C594.09,537.01,586.14,462.9,595,425.5z"/>
		<ellipse fill="#B2A89D" cx="597.3" cy="662.69" rx="203.32" ry="147.33"/>
		
			<radialGradient id="SVGID_2_" cx="1434.6234" cy="461.4071" r="162.02" fx="1484.809" fy="474.9022" gradientTransform="matrix(1.333 0.197 0.351 -1.401 -1471.7109 1046.594)" gradientUnits="userSpaceOnUse">
			<stop  offset="0.585" style="stop-color:#F8F8F8;stop-opacity:0"/>
			<stop  offset="0.677" style="stop-color:#F8F8F8;stop-opacity:0"/>
			<stop  offset="0.936" style="stop-color:#E8E8E8;stop-opacity:0.3"/>
		</radialGradient>
		<path fill="url(#SVGID_2_)" d="M396.8,688.31c-1.88-8.33-2.83-16.83-2.83-25.37c0-81.51,85.95-147.59,191.98-147.59
			c45.57,0,87.44,12.21,120.36,32.6C433.97,521.5,543.86,737.19,482.22,766.22C435.92,781.33,401.69,710,396.8,688.31z"/>
		
			<radialGradient id="SVGID_3_" cx="762.0657" cy="857.4307" r="328.163" fx="863.7145" fy="884.7645" gradientTransform="matrix(0.982 0.189 0.251 -1.301 -122.063 1341.603)" gradientUnits="userSpaceOnUse">
			<stop  offset="0.585" style="stop-color:#F8F8F8;stop-opacity:0"/>
			<stop  offset="0.677" style="stop-color:#F8F8F8;stop-opacity:0"/>
			<stop  offset="0.936" style="stop-color:#E8E8E8;stop-opacity:0.3"/>
		</radialGradient>
		<path fill="url(#SVGID_3_)" d="M817.96,38.7C670.54,38,535.42,151.65,535.42,342.55c0,17.81,3.44,34.46,6.18,51.43
			c4.29,26.63,26.79,85.36,58.71,121.86c28.62,1.49,56.71,8.25,82.88,19.92c72.59-79.79-76.23-482.68,311.92-429.94
			C946.64,63.83,885.03,39.01,817.96,38.7z"/>
		<path fill="#B2A89D" d="M1018.3,740.42c22.54-25.5,35.73-56.33,35.73-89.52c0-87.88-92.35-159.12-206.27-159.12
			S641.5,563.02,641.5,650.9c0,35.29,14.9,67.89,40.1,94.27c-345.8-0.84-623.53-28.29-623.53,47.17
			c0,82.51,286.28,47.15,639.42,47.15s639.41,47.15,639.41-47.15C1336.9,741.09,1208.81,737.31,1018.3,740.42z"/>
		
			<radialGradient id="SVGID_4_" cx="-10553.5459" cy="7682.6289" r="1219.558" fx="-10553.5459" fy="7682.6284" gradientTransform="matrix(-0.594 0.106 0.01 0.07 -5676.3687 1306.9399)" gradientUnits="userSpaceOnUse">
			<stop  offset="0.585" style="stop-color:#F8F8F8;stop-opacity:0"/>
			<stop  offset="0.677" style="stop-color:#F8F8F8;stop-opacity:0"/>
			<stop  offset="0.936" style="stop-color:#E8E8E8;stop-opacity:0.3"/>
		</radialGradient>
		<path fill="url(#SVGID_4_)" d="M58.09,793.47c-4.1-55.18,136.01-53.71,266.96-53.71c56.28,0,182.15,4.32,192.23,3.41
			c-5.55,9.4-143.97,28.92-147.89,36.39c-24.72,46.99-127.8,68.02-193.99,64.6C128.89,844.51,55.24,827.51,58.09,793.47z"/>
		
			<radialGradient id="SVGID_5_" cx="804.6188" cy="576.1392" r="161.993" fx="854.797" fy="589.6323" gradientTransform="matrix(0.982 0.189 0.268 -1.393 -60.613 1269.276)" gradientUnits="userSpaceOnUse">
			<stop  offset="0.585" style="stop-color:#F8F8F8;stop-opacity:0"/>
			<stop  offset="0.677" style="stop-color:#F8F8F8;stop-opacity:0"/>
			<stop  offset="0.936" style="stop-color:#E8E8E8;stop-opacity:0.3"/>
		</radialGradient>
		<path fill="url(#SVGID_5_)" d="M732.63,622.87c-1.26-8.04-1.96-16.17-2.08-24.31c0.01-78.12,63.34-141.45,141.46-141.44
			c32.25,0,63.53,11.03,88.66,31.24c-200.65-25.35-114.64,180.95-160.05,208.77C766.5,711.61,737.21,655.28,732.63,622.87z"/>
	</g>
</g>
</svg>
