<?xml version="1.0" encoding="utf-8"?>
<!-- Generator: Adobe Illustrator 24.0.3, SVG Export Plug-In . SVG Version: 6.00 Build 0)  -->
<svg version="1.1" id="Layer_1" xmlns="http://www.w3.org/2000/svg" xmlns:xlink="http://www.w3.org/1999/xlink" x="0px" y="0px"
	 viewBox="0 0 1920 1080" enable-background="new 0 0 1920 1080" xml:space="preserve">
<title>scroll_back2</title>
<g id="blue">
	<rect x="1" fill="#6583A3" width="1920" height="1080"/>
</g>
<g id="sky_layer_3">
	<g>
		<ellipse fill="#B1A895" cx="563.98" cy="537.02" rx="107.45" ry="102.25"/>
		
			<radialGradient id="SVGID_1_" cx="1130.0317" cy="5802.709" r="179.947" fx="1185.7704" fy="5817.6973" gradientTransform="matrix(0.347 0.518 -0.843 0.666 5041.2412 -3888.4519)" gradientUnits="userSpaceOnUse">
			<stop  offset="0.585" style="stop-color:#F8F8F8;stop-opacity:0"/>
			<stop  offset="0.677" style="stop-color:#F8F8F8;stop-opacity:0"/>
			<stop  offset="0.936" style="stop-color:#E8E8E8;stop-opacity:0.3"/>
		</radialGradient>
		<path fill="url(#SVGID_1_)" d="M474.58,479.26c3.04-4.25,6.32-8.32,9.83-12.2c34.12-36.81,97.05-44.39,140.57-15.23
			c14.53,9.74,39.89,33.08,40.62,50.88c-65.59-83-164.24,88.94-193.74,85.97C441.43,539.99,462.17,496.15,474.58,479.26z"/>
		<ellipse fill="#B1A895" cx="425.55" cy="501.35" rx="145.34" ry="129.91"/>
		
			<radialGradient id="SVGID_2_" cx="-469.4328" cy="878.8747" r="187.539" fx="-411.3422" fy="894.4957" gradientTransform="matrix(0.823 0.15 -0.217 1.068 1005.965 -347.3779)" gradientUnits="userSpaceOnUse">
			<stop  offset="0.585" style="stop-color:#F8F8F8;stop-opacity:0"/>
			<stop  offset="0.677" style="stop-color:#F8F8F8;stop-opacity:0"/>
			<stop  offset="0.936" style="stop-color:#E8E8E8;stop-opacity:0.3"/>
		</radialGradient>
		<path fill="url(#SVGID_2_)" d="M282.22,523.95c-1.35-7.38-2.02-14.87-2.02-22.37c0-71.87,61.44-130.14,137.24-130.14
			c31.06-0.13,61.3,9.97,86.04,28.74C308.8,376.86,387.35,567.06,343.29,592.65C310.19,605.97,285.72,543.08,282.22,523.95z"/>
		<path fill="#B1A895" d="M725.94,610.81c0-33.16-77.39-28.89-183.82-26.18c-7.49,0.19-12.5-39.07-20.26-38.9
			c-7.66,0.16-18.09,39.74-25.98,39.85c-9.87,0.13-19.89,0.2-30.08,0.21c-143.67,0-260.14-15.65-260.14,25.03
			c0,43.8,116.47,25.03,260.14,25.03S725.94,660.87,725.94,610.81z"/>
		
			<radialGradient id="SVGID_3_" cx="-2721.4309" cy="3276.6389" r="1135.5389" fx="-2721.4309" fy="3276.6392" gradientTransform="matrix(-0.4309 0.0684 -7.253897e-03 -0.0451 -529.6031 904.4006)" gradientUnits="userSpaceOnUse">
			<stop  offset="0.585" style="stop-color:#F8F8F8;stop-opacity:0"/>
			<stop  offset="0.677" style="stop-color:#F8F8F8;stop-opacity:0"/>
			<stop  offset="0.936" style="stop-color:#E8E8E8;stop-opacity:0.3"/>
		</radialGradient>
		<path fill="url(#SVGID_3_)" d="M205.74,611.62c-2.97-35.59,75.71-28.16,170.69-28.16c40.83,0,133.23,1.06,140.54,0.47
			c-4.02,6.06-82.65,12.72-85.49,17.53c-17.93,30.31-92.78,39.39-140.79,37.18C248.71,638.96,207.93,637.76,205.74,611.62z"/>
	</g>
</g>
<g id="sky_layer_2">
	<g>
		
			<ellipse transform="matrix(0.1786 -0.9839 0.9839 0.1786 164.8631 1147.0831)" fill="#B1A895" cx="769.46" cy="474.8" rx="236.63" ry="178.99"/>
		
			<radialGradient id="SVGID_4_" cx="-3603.408" cy="4344.3521" r="394.753" fx="-3481.1331" fy="4377.2329" gradientTransform="matrix(0.462 0.295 -0.358 0.796 3997.842 -1885.995)" gradientUnits="userSpaceOnUse">
			<stop  offset="0.585" style="stop-color:#F8F8F8;stop-opacity:0"/>
			<stop  offset="0.677" style="stop-color:#F8F8F8;stop-opacity:0"/>
			<stop  offset="0.936" style="stop-color:#E8E8E8;stop-opacity:0.3"/>
		</radialGradient>
		<path fill="url(#SVGID_4_)" d="M833.65,248.42c-89.32-31.74-195.7,27.97-236.63,176.3c-3.82,13.84-5.3,27.51-7.28,41.27
			c-3.11,21.6-2.04,72,9.5,107.11c17.53,7.57,33.23,18.83,46.02,33.02c61.17-46.64,57.25-391.18,281.5-268.06
			C906.35,295.19,874.28,262.86,833.65,248.42z"/>
		
			<ellipse transform="matrix(0.1396 -0.9902 0.9902 0.1396 -45.8301 1095.3749)" fill="#B1A895" cx="607.4" cy="574.06" rx="119.69" ry="147.36"/>
		
			<radialGradient id="SVGID_5_" cx="-500.026" cy="2285.4561" r="198.462" fx="-438.5522" fy="2301.9873" gradientTransform="matrix(0.788 0.213 -0.285 0.923 1661.214 -1410.722)" gradientUnits="userSpaceOnUse">
			<stop  offset="0.585" style="stop-color:#F8F8F8;stop-opacity:0"/>
			<stop  offset="0.677" style="stop-color:#F8F8F8;stop-opacity:0"/>
			<stop  offset="0.936" style="stop-color:#E8E8E8;stop-opacity:0.3"/>
		</radialGradient>
		<path fill="url(#SVGID_5_)" d="M461.22,580.33c-0.82-6.89-0.96-13.85-0.41-20.76c5.23-66.05,77.8-114.46,147.87-105.74
			c32.78,4.08,71.01,14.02,93.43,32.92c-194.63-41.1-138.01,143.8-184.31,162.88C483.45,658.53,463.35,598.26,461.22,580.33z"/>
		<path fill="#B1A895" d="M1008.01,671.15c0-44.26-73.83-45-181.3-41.71c-4.92,0.15-11.23-24.24-16.29-24.08
			s-8.89,24.88-14.09,25.05c-35.86,1.17-74.71,2.38-115.29,2.38c-180.58,0-326.97-23.97-326.97,38.36
			c0,67.12,146.39,38.36,326.97,38.36S1008.01,747.87,1008.01,671.15z"/>
		
			<radialGradient id="SVGID_6_" cx="-2855.157" cy="1479.53" r="1135.5389" fx="-2855.157" fy="1479.5302" gradientTransform="matrix(-0.594 0.106 -0.01 -0.07 -757.056 1016.173)" gradientUnits="userSpaceOnUse">
			<stop  offset="0.585" style="stop-color:#F8F8F8;stop-opacity:0"/>
			<stop  offset="0.677" style="stop-color:#F8F8F8;stop-opacity:0"/>
			<stop  offset="0.936" style="stop-color:#E8E8E8;stop-opacity:0.3"/>
		</radialGradient>
		<path fill="url(#SVGID_6_)" d="M354.07,673.78c-4.1-55.18,104.37-43.66,235.31-43.66c56.28,0,183.66,1.65,193.75,0.73
			c-5.55,9.4-113.93,19.73-117.86,27.19c-24.72,46.99-127.9,61.07-194.09,57.65C413.3,716.16,357.08,714.3,354.07,673.78z"/>
	</g>
</g>

<g id="character"> </g>

<g id="sky_layer_1">
	<g>
		
			<ellipse transform="matrix(0.2318 -0.9728 0.9728 0.2318 501.1787 2008.2908)" fill="#B2A89D" cx="1522.12" cy="686.83" rx="206.28" ry="178.1"/>
		<ellipse fill="#B2A89D" cx="1240.35" cy="471.36" rx="279.93" ry="292.7"/>
		
			<radialGradient id="SVGID_7_" cx="1863.783" cy="2746.709" r="190.186" fx="1922.6936" fy="2762.55" gradientTransform="matrix(0.8456 0.5338 -0.7574 1.1999 1691.0502 -3663.7283)" gradientUnits="userSpaceOnUse">
			<stop  offset="0.585" style="stop-color:#F8F8F8;stop-opacity:0"/>
			<stop  offset="0.677" style="stop-color:#F8F8F8;stop-opacity:0"/>
			<stop  offset="0.936" style="stop-color:#E8E8E8;stop-opacity:0.3"/>
		</radialGradient>
		<path fill="url(#SVGID_7_)" d="M1020,566.16c2.06-9.34,4.77-18.52,8.12-27.47c33.4-85.41,129.72-127.58,215.14-94.17
			c35.26,13.79,64.75,39.22,83.59,72.07c-208.55-113.5-202.71,148.84-264.26,159.84C1019.09,677.67,1011.14,603.56,1020,566.16z"/>
		<ellipse fill="#B2A89D" cx="1022.3" cy="803.35" rx="203.32" ry="147.33"/>
		
			<radialGradient id="SVGID_8_" cx="2624.1919" cy="789.783" r="162.02" fx="2674.3777" fy="803.2778" gradientTransform="matrix(1.333 0.197 -0.351 1.401 -2193.2361 -800.008)" gradientUnits="userSpaceOnUse">
			<stop  offset="0.585" style="stop-color:#F8F8F8;stop-opacity:0"/>
			<stop  offset="0.677" style="stop-color:#F8F8F8;stop-opacity:0"/>
			<stop  offset="0.936" style="stop-color:#E8E8E8;stop-opacity:0.3"/>
		</radialGradient>
		<path fill="url(#SVGID_8_)" d="M821.8,828.97c-1.88-8.33-2.83-16.83-2.83-25.37c0-81.51,85.95-147.59,191.98-147.59
			c45.57,0,87.44,12.21,120.36,32.6c-272.34-26.45-162.45,189.24-224.09,218.27C860.92,921.99,826.69,850.66,821.8,828.97z"/>
		
			<radialGradient id="SVGID_9_" cx="1266.576" cy="511.174" r="328.163" fx="1368.2251" fy="538.508" gradientTransform="matrix(0.982 0.189 -0.251 1.301 151.03 -393.644)" gradientUnits="userSpaceOnUse">
			<stop  offset="0.585" style="stop-color:#F8F8F8;stop-opacity:0"/>
			<stop  offset="0.677" style="stop-color:#F8F8F8;stop-opacity:0"/>
			<stop  offset="0.936" style="stop-color:#E8E8E8;stop-opacity:0.3"/>
		</radialGradient>
		<path fill="url(#SVGID_9_)" d="M1242.96,179.36c-147.42-0.7-282.54,112.95-282.54,303.85c0,17.81,3.44,34.46,6.18,51.43
			c4.29,26.63,26.79,85.36,58.71,121.86c28.61,1.49,56.71,8.25,82.88,19.92c72.59-79.79-76.23-482.68,311.92-429.94
			C1371.64,204.49,1310.03,179.67,1242.96,179.36z"/>
		<path fill="#B2A89D" d="M1443.3,881.08c22.54-25.5,35.73-56.33,35.73-89.52c0-87.88-92.35-159.12-206.27-159.12
			s-206.26,71.24-206.26,159.12c0,35.29,14.9,67.89,40.1,94.27c-345.8-0.84-623.53-28.29-623.53,47.17
			c0,82.51,286.28,47.15,639.42,47.15S1761.9,1027.3,1761.9,933C1761.9,881.75,1633.81,877.97,1443.3,881.08z"/>
		
			<radialGradient id="SVGID_10_" cx="-3074.2771" cy="-2520.1255" r="1219.558" fx="-3074.2771" fy="-2520.1252" gradientTransform="matrix(-0.594 0.106 -0.01 -0.07 -757.056 1016.173)" gradientUnits="userSpaceOnUse">
			<stop  offset="0.585" style="stop-color:#F8F8F8;stop-opacity:0"/>
			<stop  offset="0.677" style="stop-color:#F8F8F8;stop-opacity:0"/>
			<stop  offset="0.936" style="stop-color:#E8E8E8;stop-opacity:0.3"/>
		</radialGradient>
		<path fill="url(#SVGID_10_)" d="M483.09,934.13c-4.1-55.18,136.01-53.71,266.96-53.71c56.28,0,182.15,4.32,192.23,3.41
			c-5.55,9.4-143.97,28.92-147.89,36.39c-24.72,46.99-127.8,68.02-193.99,64.6C553.89,985.17,480.24,968.17,483.09,934.13z"/>
		
			<radialGradient id="SVGID_11_" cx="1308.814" cy="759.559" r="161.993" fx="1358.9918" fy="773.0519" gradientTransform="matrix(0.9819 0.1892 -0.2684 1.3934 227.4541 -546.2598)" gradientUnits="userSpaceOnUse">
			<stop  offset="0.585" style="stop-color:#F8F8F8;stop-opacity:0"/>
			<stop  offset="0.677" style="stop-color:#F8F8F8;stop-opacity:0"/>
			<stop  offset="0.936" style="stop-color:#E8E8E8;stop-opacity:0.3"/>
		</radialGradient>
		<path fill="url(#SVGID_11_)" d="M1157.63,763.53c-1.26-8.05-1.96-16.17-2.08-24.31c0-78.12,63.33-141.44,141.45-141.44
			c32.25,0,63.54,11.02,88.67,31.24c-200.65-25.35-114.64,180.95-160.05,208.77C1191.5,852.27,1162.21,795.94,1157.63,763.53z"/>
	</g>
</g>
<g id="overlay">
	<radialGradient id="SVGID_12_" cx="1894.606" cy="23.3149" r="2135.8931" gradientUnits="userSpaceOnUse">
		<stop  offset="0" style="stop-color:#FFD89F;stop-opacity:0.25"/>
		<stop  offset="0.98" style="stop-color:#A8A8A8;stop-opacity:0"/>
	</radialGradient>
	<rect fill="url(#SVGID_12_)" width="1920" height="1080"/>
</g>
</svg>
