<svg id="Layer_1" data-name="Layer 1" xmlns="http://www.w3.org/2000/svg" xmlns:xlink="http://www.w3.org/1999/xlink" viewBox="0 0 550 300">
  <defs>
    <radialGradient id="radial-gradient" cx="-81.99" cy="7620.106" fx="-26.251111751432482" fy="7635.0944302537155" r="179.947" gradientTransform="matrix(0.347, 0.518, -0.843, 0.666, 6803.079, -4827.782)" gradientUnits="userSpaceOnUse">
      <stop offset="0.585" stop-color="#f8f8f8" stop-opacity="0"/>
      <stop offset="0.677" stop-color="#f8f8f8" stop-opacity="0"/>
      <stop offset="0.936" stop-color="#e8e8e8" stop-opacity="0.3"/>
    </radialGradient>
    <radialGradient id="radial-gradient-2" cx="-1248.631" cy="979.433" fx="-1190.5400969774646" fy="995.0539948487681" r="187.539" gradientTransform="matrix(0.823, 0.15, -0.217, 1.068, 1478.267, -694.665)" xlink:href="#radial-gradient"/>
    <radialGradient id="radial-gradient-3" cx="4292.637" cy="29218.528" fx="4292.637498953332" fy="29218.527643935973" r="1135.539" gradientTransform="matrix(-0.431, 0.068, -0.007, -0.045, 2490.14, 1237.847)" xlink:href="#radial-gradient"/>
  </defs>
  <title>small_coud2</title>
  <g id="sky_layer_3" data-name="sky layer 3">
    <g>
      <ellipse cx="373.181" cy="180.249" rx="107.45" ry="102.25" fill="#b1a895"/>
      <path d="M283.781,122.489a136.911,136.911,0,0,1,9.83-12.2c34.12-36.81,97.05-44.39,140.57-15.23,14.53,9.74,39.89,33.08,40.62,50.88-65.59-83-164.24,88.94-193.74,85.97C250.631,183.219,271.371,139.379,283.781,122.489Z" fill="url(#radial-gradient)"/>
      <ellipse cx="234.751" cy="144.579" rx="145.34" ry="129.91" fill="#b1a895"/>
      <path d="M91.421,167.179a124.332,124.332,0,0,1-2.02-22.37c0-71.87,61.44-130.14,137.24-130.14a141.375,141.375,0,0,1,86.04,28.74c-194.68-23.32-116.13,166.88-160.19,192.47C119.391,249.2,94.921,186.309,91.421,167.179Z" fill="url(#radial-gradient-2)"/>
      <path d="M535.141,254.039c0-33.16-77.39-28.89-183.82-26.18-7.49.19-12.5-39.07-20.26-38.9-7.66.16-18.09,39.74-25.98,39.85q-14.805.195-30.08.21c-143.67,0-260.14-15.65-260.14,25.03,0,43.8,116.47,25.03,260.14,25.03S535.141,304.1,535.141,254.039Z" fill="#b1a895"/>
      <path d="M14.941,254.849c-2.97-35.59,75.71-28.16,170.69-28.16,40.83,0,133.23,1.06,140.54.47-4.02,6.06-82.65,12.72-85.49,17.53-17.93,30.31-92.78,39.39-140.79,37.18C57.911,282.189,17.131,280.989,14.941,254.849Z" fill="url(#radial-gradient-3)"/>
    </g>
  </g>
</svg>
