<svg id="Layer_1" data-name="Layer 1" xmlns="http://www.w3.org/2000/svg" xmlns:xlink="http://www.w3.org/1999/xlink" viewBox="0 0 700 500">
  <defs>
    <radialGradient id="radial-gradient" cx="-5827.755" cy="6006.078" fx="-5705.480576857161" fy="6038.959286076015" r="394.753" gradientTransform="matrix(0.462, 0.295, -0.358, 0.796, 5289.405, -2781.975)" gradientUnits="userSpaceOnUse">
      <stop offset="0.585" stop-color="#f8f8f8" stop-opacity="0"/>
      <stop offset="0.677" stop-color="#f8f8f8" stop-opacity="0"/>
      <stop offset="0.936" stop-color="#e8e8e8" stop-opacity="0.3"/>
    </radialGradient>
    <radialGradient id="radial-gradient-2" cx="-1265.664" cy="2878.744" fx="-1204.189717686047" fy="2895.2755882694146" r="198.462" gradientTransform="matrix(0.788, 0.213, -0.285, 0.923, 2102.64, -2024.675)" xlink:href="#radial-gradient"/>
    <radialGradient id="radial-gradient-3" cx="4910.752" cy="5238.363" fx="4910.752399780447" fy="5238.362762141737" r="1135.539" gradientTransform="matrix(-0.594, 0.106, -0.01, -0.07, 3562.499, 226.676)" xlink:href="#radial-gradient"/>
  </defs>
  <title>small_cloud1</title>
  <g id="sky_layer_2" data-name="sky layer 2">
    <g>
      <ellipse cx="438.473" cy="245.371" rx="236.635" ry="178.986" transform="translate(118.734 632.97) rotate(-79.712)" fill="#b1a895"/>
      <path d="M502.666,18.991c-89.32-31.74-195.7,27.97-236.63,176.3-3.82,13.84-5.3,27.511-7.28,41.27-3.11,21.6-2.04,72,9.5,107.11a132.869,132.869,0,0,1,46.02,33.02c61.17-46.64,57.25-391.18,281.5-268.06C575.366,65.761,543.3,33.431,502.666,18.991Z" fill="url(#radial-gradient)"/>
      <ellipse cx="276.419" cy="344.631" rx="119.689" ry="147.359" transform="translate(-103.426 570.232) rotate(-81.975)" fill="#b1a895"/>
      <path d="M130.236,350.9a105.15,105.15,0,0,1-.41-20.76c5.23-66.05,77.8-114.46,147.87-105.74,32.78,4.079,71.01,14.02,93.43,32.919-194.63-41.1-138.01,143.8-184.31,162.881C152.466,429.1,132.366,368.832,130.236,350.9Z" fill="url(#radial-gradient-2)"/>
      <path d="M677.026,441.722c0-44.26-73.83-45-181.3-41.711-4.92.151-11.23-24.239-16.29-24.08s-8.89,24.88-14.09,25.05c-35.86,1.17-74.71,2.38-115.29,2.38-180.58,0-326.97-23.969-326.97,38.36,0,67.12,146.39,38.36,326.97,38.36S677.026,518.441,677.026,441.722Z" fill="#b1a895"/>
      <path d="M23.086,444.352c-4.1-55.18,104.37-43.66,235.31-43.66,56.28,0,183.66,1.65,193.75.73-5.55,9.4-113.93,19.73-117.86,27.19-24.72,46.99-127.9,61.07-194.09,57.65C82.316,486.731,26.1,484.871,23.086,444.352Z" fill="url(#radial-gradient-3)"/>
    </g>
  </g>
</svg>
