<svg id="potato_svg" xmlns="http://www.w3.org/2000/svg" xmlns:xlink="http://www.w3.org/1999/xlink" viewBox="0 0 700 700">
  

 <g id="back_shadow" >
  <image id="arms_shadow" class="hide" data-shadow="arms_hug" data-type="arms" width="128" height="41" transform="translate(81.5 504.56)" xlink:href="imgs/potatohead_svg/potato_head_cropped1.png"/>
  <image id="ms_shoes_shadow" class="hide" data-shadow="ms_shoes" width="382" height="131" transform="translate(162.5 519.56)" xlink:href="imgs/potatohead_svg/potato_head_cropped2.png"/>
  <image id="mr_shoes_shadow" data-shadow="mr_shoes" width="328" height="156" transform="translate(185.5 539.56)" xlink:href="imgs/potatohead_svg/potato_head_cropped3.png"/>
  <image id="body_shadow" data-shadow="body" width="295" height="46" transform="translate(128.5 510.56)" xlink:href="imgs/potatohead_svg/potato_head_cropped4.png"/>
 </g>
  
  <g id="mrs_ears" class="hide" data-type="ears">
  <image id="big_ears_left" width="95" height="136" transform="translate(138.5 138.56)" xlink:href="imgs/potatohead_svg/potato_head_cropped5.png"/>
  <image id="big_ears_right" width="105" height="134" transform="translate(473.5 118.56)" xlink:href="imgs/potatohead_svg/potato_head_cropped6.png"/>
  </g>

   <g id="ms_ears" class="hide" data-type="ears">
    <image id="right_ear" width="78" height="126" transform="translate(153.5 144.56)" xlink:href="imgs/potatohead_svg/potato_head_cropped14.png"/>
    <image id="left_ear" width="84" height="123" transform="translate(481.5 132.56)" xlink:href="imgs/potatohead_svg/potato_head_cropped15.png"/>
  </g>
  
  <g id="mr_shoes" data-type="shoes" data-shadow="mr_shoes">
    <image id="mr_shoes_original" width="338" height="183" transform="translate(193.5 512.56)" xlink:href="imgs/potatohead_svg/potato_head_cropped7.png"/>
    <polygon id="mr_shoes_left" points="296.08 515.14 294.96 524.99 293.84 529.68 290.71 531.92 287.13 531.92 283.1 531.92 279.3 531.92 274.82 531.92 270.79 531.92 266.99 531.92 264.3 533.26 260.72 535.95 254.23 539.53 248.19 541.99 244.16 545.79 239.91 551.16 237.45 554.75 235.21 559.22 232.98 562.8 230.51 563.92 226.99 568.25 225.35 571.02 223.34 574.54 222.08 579.06 221.08 582.84 220.45 585.98 219.44 588.24 216.68 590.88 214.79 593.52 214.79 596.54 214.16 598.55 211.52 601.94 207.88 606.09 205.11 609.61 202.72 613.89 200.08 618.29 198.82 622.06 197.69 626.33 197.06 630.11 196.18 634.38 196.18 638.9 196.18 642.68 196.18 645.95 195.56 648.33 193.92 649.84 193.92 652.86 194.8 656.76 196.69 660.65 199.58 664.68 203.85 668.7 209.26 672.22 215.42 675.36 221.96 678 229.63 680.64 236.92 682.28 244.46 683.16 252.63 683.79 260.8 684.29 269.23 684.29 281.17 684.29 292.23 683.66 303.04 681.77 313.48 678.76 324.29 674.11 334.6 667.82 342.27 660.03 346.29 651.98 348.68 643.68 349.81 631.99 349.81 621.68 350.44 614.26 350.44 609.24 345.29 597.04 339.25 585.98 333.97 575.42 329.57 565.74 329.19 558.57 329.32 551.15 329.32 545.37 329.19 539.21 329.57 534.18 330.83 529.91 332.08 526.39 332.59 524.13 332.46 522.37 324.79 520.86 319.01 519.73 312.6 518.47 306.56 517.08 301.28 516.08 297.14 513.82 296.08 515.14" fill="#2491d2"/>
    <polygon id="mr_shoes_right" points="402.9 523.6 402.9 531.02 402.9 537.83 402.9 545.65 402.9 554.48 401.7 562.9 400.5 568.11 397.69 573.52 396.29 576.93 396.29 581.75 392.27 586.56 386.66 592.37 382.16 600.66 379.47 608.73 377.94 615.84 376.59 623.91 375.82 628.72 375.82 633.72 375.82 641.02 375.82 643.9 377.55 651.4 380.24 658.89 385.24 665.62 391.96 672.34 399.07 677.15 408.3 682.14 416.75 685.8 425.79 689.06 434.63 690.99 444.81 692.33 458.39 693.32 471.98 693.32 483.44 693.32 492.9 692.14 506.06 689.14 517.31 684.85 523.54 679.86 528.12 675.01 530.47 669.05 531.17 659.63 530.06 647.57 529.37 638.29 524.51 627.06 518.83 618.19 516.34 614.73 514.95 612.23 515.09 607.38 513.01 604.06 510.66 600.45 510.24 596.02 508.99 590.48 507.19 584.1 502.48 577.86 499.15 573.98 494.17 563.04 490.15 556.11 482.52 549.73 474.21 544.88 469.5 540.86 463.26 538.51 455.08 537.95 446.63 537.12 440.95 535.87 439.43 525.76 439.43 515.5 438.04 513.84 434.71 513.84 431.66 515.23 427.09 516.75 421.41 518.41 414.48 520.08 408.11 520.91 403.67 521.88 402.9 523.6" fill="#2491d2"/>
    <image id="mr_shoes_shadowlayer" width="338" height="183" transform="translate(193.5 512.08)" opacity="0.51" xlink:href="imgs/potatohead_svg/potato_head_cropped8.png"/>
    <image id="mr_shoes_highlight" width="336" height="181" transform="translate(194.5 512.56)" opacity="0.56" xlink:href="imgs/potatohead_svg/potato_head_cropped9.png"/>
  </g>

  <g id="ms_shoes" class="hide" data-type="shoes" data-shadow="ms_shoes">
    <image id="ms_shoes_orginal" width="422" height="222" transform="translate(161.5 428.56)" xlink:href="imgs/potatohead_svg/potato_head_cropped10.png"/>
    <polygon id="ms_shoes_path" points="206.66 569.74 202.66 571.34 199.45 571.34 197.37 572.46 192.73 578.39 185.04 586.08 177.83 593.76 172.71 599.05 169.18 603.86 165.5 608.5 163.25 611.7 162.29 617.47 162.29 622.92 163.57 627.88 166.78 633.33 171.9 638.93 179.43 642.14 188.08 645.18 194.92 646.78 203.62 647.9 208.92 648.38 217.59 648.38 224.59 648.38 239.6 646.38 251.38 644.49 272.16 639.27 284.39 634.27 298.62 627.38 308.99 620.67 317.02 613.46 326.41 604.21 332.67 597.27 338.66 591.41 342.6 587.2 345.05 586.38 346.82 586.65 348.18 590.19 348.18 593.59 348.77 598.48 349.57 600.7 351.44 602.2 356.04 601.76 360.48 600.08 364.82 598.12 368.9 596.71 371.65 595.91 374.82 596.26 379.28 597.77 383.18 599.54 386.73 600.78 389.83 602.12 393.03 601.4 394.89 599.45 395.95 595.46 396.75 592.09 397.73 588.37 398.79 587.66 404.29 592.71 409.97 598.66 416.09 605.57 422.83 612.4 429.92 618.61 437.9 624.64 444.02 629.17 451.65 633.07 461.85 637.24 472.14 641.32 479.59 644.16 486.15 645.22 494.49 647.08 504.07 648.38 511.7 648.95 521.01 648.95 527.93 648.32 537.68 648.5 549.99 646.98 561.76 644.56 569.68 641.37 575.18 636.53 578.15 632.24 580.68 627.51 582.22 622.23 582.22 615.63 580.79 610.24 576.28 603.58 564.51 590.88 556.15 582.74 549.66 575.59 544.27 568.77 539.98 569.34 536.06 568.77 532.76 568.01 531.34 567.49 530.17 567.49 529.92 570 528.51 572.03 527.28 573.49 526.43 574.39 525.58 575.47 526.19 577.5 526.48 581.05 526.19 585.58 525.48 589.45 523.12 593.47 520.53 596.63 517.64 599.42 512.64 602.53 508.58 604.47 504.47 605.51 497.81 605.65 490.68 604.89 483.55 601.78 477.22 596.49 472.55 590.73 469.71 586.62 467.73 581.19 465.79 575.76 462.51 573.58 460.24 572.52 455.5 571.56 447.53 567.49 435.96 556.84 426.23 546.15 417.22 534.22 413.59 527.85 410.93 523.34 410.5 521.78 402.56 522.74 391.89 524.15 382.86 524.97 371.53 525.19 359.83 525.48 349.91 525.19 342.2 523.78 334.8 522.89 331.54 522.08 330.06 523.19 325.99 531.11 321.76 538 315.17 545.55 307.77 553.25 299.55 561.99 292.22 568.8 285.03 573.62 278.3 575.77 276.37 577.47 274.22 578.28 271.78 578.43 270.74 578.06 270.59 576.36 269.7 575.17 268.59 574.8 267.71 574.95 267 579.45 265.52 584.2 262.57 588.91 258.64 593.53 253.42 598.43 248.48 601.52 242.34 603.56 236.84 604.66 230.19 604.9 225.3 603.97 219.25 600.28 215.23 595.84 211.58 589.88 210.65 583.7 211.12 576.4 211.12 574.18 208.48 572.15 207.38 571.13 207.24 570.21 206.66 569.74" fill="#3f95ff"/>
    <image id="ms_shoes_shadowlayer" width="420" height="128" transform="translate(163 521.06)" opacity="0.54" xlink:href="imgs/potatohead_svg/potato_head_cropped11.png"/>
  </g>

  <g id="arms_hug" class="hide" data-type="arms">
    <image id="right_arm" width="183" height="237" transform="translate(516.5 95.56)" xlink:href="imgs/potatohead_svg/potato_head_cropped12.png"/>
    <image id="left_arm" width="217" height="175" transform="translate(0.5 182.56)" xlink:href="imgs/potatohead_svg/potato_head_cropped13.png"/>
  </g>
  
  <image id="body" data-type="body" data-shadow="body" width="329" height="465" transform="translate(208.5 62.56)" xlink:href="imgs/potatohead_svg/potato_head_cropped16.png"/>

  <image id="mustache_mouth" class="hide" data-type="mouth" width="303" height="165" transform="translate(223.5 337.56)" xlink:href="imgs/potatohead_svg/potato_head_cropped20.png"/>
  <image id="teeth" class="hide" data-type="mouth" width="161" height="97" transform="translate(295.5 384.56)" xlink:href="imgs/potatohead_svg/potato_head_cropped22.png"/>
  <image id="red_lips" class="hide" data-type="mouth" width="232" height="119" transform="translate(265.5 377.56)" xlink:href="imgs/potatohead_svg/potato_head_cropped24.png"/>

  <image id="lazy_eyes" class="hide" data-type="eyes"  width="202" height="165" transform="translate(259.5 109.56)" xlink:href="imgs/potatohead_svg/potato_head_cropped30.png"/>
  <image id="ms_eyes" class="hide" data-type="eyes" width="208" height="154" transform="translate(257.5 117.56)" xlink:href="imgs/potatohead_svg/potato_head_cropped23.png"/>
  <image id="os_eyes" class="hide" data-type="eyes" width="181" height="112" transform="translate(265.5 139.56)" xlink:href="imgs/potatohead_svg/potato_head_cropped17.png"/>

  <g id="black_hat" class="hide" data-type="hat">
    <image id="black_hat_undershadow" width="237" height="94" transform="translate(237.5 53.56)" xlink:href="imgs/potatohead_svg/potato_head_cropped18.png"/>
    <polygon id="black_hat_path" points="246.07 108.26 242.79 100.29 242.28 91.25 243 81.64 244.78 75.11 248.1 69.64 251.66 65.61 254.63 63 257.84 62.16 262.59 62.16 266.74 62.76 269.83 64.18 271.25 64.42 276.05 59.96 279.69 55.56 285.51 48.88 290.34 44.34 296.33 39.51 303.96 34.59 309.76 31.59 316.13 28.5 324.06 25.49 334.17 22.37 343.15 21.12 350.39 20.38 360.25 20.87 369.85 21.87 380.46 23.74 389.34 25.71 395.92 28.17 401.67 30.05 407.31 32.4 413.64 35.33 420.1 39.79 425.86 44.37 430.32 48.24 434.9 52.94 440.3 60.57 443.47 65.03 445.7 69.03 446.99 71.02 450.51 74.06 452.74 76.78 454.15 79.59 454.86 82.41 456.15 83.47 458.61 82.29 460.73 81 463.19 80.3 465.19 79.95 467.65 80.06 469.53 81 470.82 82.65 472 85.35 472.7 89.34 473.29 94.03 473.29 96.5 473.29 100.26 473.29 105.42 473.29 108.95 473.63 114.23 473.02 115.78 471.85 117.22 468.06 120.87 464.89 122.98 461.89 124.65 459.17 125.59 455.55 126.76 451.66 127.37 442.38 127.59 436.94 127.59 433.93 128.21 428.88 128.43 422.21 128.43 411.93 128.43 407.59 128.43 401.75 127.48 392.97 127.54 388.08 127.48 383.3 126.76 375.02 125.87 365.41 125.26 358.9 124.2 350.29 123.15 339.62 121.31 326.56 118.48 316.22 116.53 305.22 114.37 291.99 111.14 282.6 108.31 274.81 106.7 270.2 105.86 266.14 105.42 259.59 105.86 255.53 106.98 253.08 108.42 251.36 110.25 250.36 111.31 248.42 110.59 246.91 109.53 246.07 108.26"/>
    <image id="black_hat_shadowlayer" width="233" height="111" transform="translate(241.46 18.9)" xlink:href="imgs/potatohead_svg/potato_head_cropped19.png"/>
  </g>
  <g id="white_hat" class="hide" data-type="hat">
    <image id="white_hat_undershadow" width="266" height="131" transform="translate(221.5 27.56)" xlink:href="imgs/potatohead_svg/potato_head_cropped25.png"/>
    <image id="white_hat_original" width="307" height="140" transform="translate(195.5 4.56)" xlink:href="imgs/potatohead_svg/potato_head_cropped26.png"/>
    <polygon id="white_hat_path" points="236.41 142.95 223.26 140.5 211.79 134.84 204.29 130.1 199.4 125.82 197.26 122.76 198.64 120.92 203.53 119.55 208.73 116.8 211.48 116.03 219.28 112.97 224.79 109.15 227.08 106.86 227.88 102.59 227.97 96.08 229.01 90.23 229.76 87.4 231.84 84.39 234.67 82.12 236.41 80.99 237.69 80.14 238.16 77.03 240.61 69.77 243.06 64.3 246.36 58.45 248.81 53.46 253.06 47.8 258.71 41.29 264.75 36.48 271.16 32.24 278.33 27.81 286.53 23.85 291.72 21.68 293.61 20.83 296.53 19.23 298.79 16.96 303.41 14.98 306.9 12.72 312.37 11.12 317.65 10.17 322.93 9.32 329.34 8.48 334.15 7.91 336.6 6.97 339.68 6.19 343.61 5.94 347.81 6.25 351.23 6.95 354.6 8.03 357.65 8.67 359.74 9.37 362.47 10.13 363.81 10.57 367.87 10.7 370.98 11.02 375.18 11.78 378.92 12.48 385.76 14.18 391.3 15.75 399.54 16.6 404.58 17.84 410.5 20.14 415.04 22.98 418.94 25.73 421.6 27.41 425.85 28.12 430.29 30.34 434.54 34.06 437.29 37.16 439.95 40.8 442.43 43.63 445.53 47.09 448.55 50.46 451.56 54.8 453.95 58.88 456.52 63.4 458.12 66.77 459.81 71.38 460.34 72.62 462.11 73.95 464.33 75.28 466.36 77.05 467.78 78.74 469.2 80.42 469.64 83.26 471.15 85.3 474.43 88.14 477.8 91.24 481.97 94.16 485.69 96.82 490.3 99.66 493.93 101.96 497.3 104.27 499.43 106.22 500.85 108.26 501.47 110.38 499.52 114.46 495.97 118.72 492.25 122.8 488.97 126.07 483.38 129.53 479.66 131.39 476.12 132.9 471.95 134.41 470.18 134.58 468.14 129.44 463 126.78 456.79 122.88 446.24 119.69 439.59 117.74 432.68 115.26 426.47 114.02 420.36 112.33 417.52 111.89 415.93 110.92 414.6 110.65 412.56 112.33 409.99 114.02 407.77 115.35 404.93 116.32 402.1 116.59 392.7 116.59 391.37 115.79 389.78 115.26 387.83 114.82 386.14 114.55 385.25 114.55 385.34 118.81 385.43 122.08 384.55 125.36 382.95 128.29 380.91 131.48 378.34 134.5 375.15 137.33 371.25 139.37 368.06 140.35 363.63 140.61 360.7 140.61 359.73 141.94 357.69 142.38 354.14 142.47 352.1 142.47 348.29 141.23 344.04 139.73 338.45 136.62 333.4 128.91 330.92 122.71 330.38 116.23 323.38 116.59 316.56 116.41 314.78 116.59 311.86 115.26 309.11 113.93 306.54 112.69 297.32 115.61 284.73 119.6 276.4 122.44 269.49 124.66 260.71 128.2 255.75 129.89 251.05 131.57 247.32 132.37 244.66 133.96 242.09 134.32 240.59 135.56 239.44 136.71 238.73 139.55 238.28 142.38 236.41 142.95" fill="#fff"/>
    <polygon id="flower_head" points="330.48 83.42 330.48 74.44 330.48 66.67 334.08 60.72 338.57 55.1 342.84 51.05 350.15 47.57 355.65 45.77 361.61 47.34 368.92 49.14 374.54 50.6 378.92 56.45 383.41 61.73 385.21 64.59 384.54 84.43 378.81 90.95 374.54 96.91 373 98.25 366.22 99.71 361.83 101.17 357.85 101.85 350.6 101.85 344.64 99.27 341.27 98.59 337.22 91.85 334.08 88.03 330.93 85.55 330.48 83.42" fill="#d7ff31"/>
    <image id="white_hat_shadow" width="307" height="140" transform="translate(195.86 4.44)" opacity="0.58" xlink:href="imgs/potatohead_svg/potato_head_cropped27.png"/>
  </g>


  <image id="dark_nose" class="hide" data-type="nose" width="142" height="144" transform="translate(296.5 230.56)" xlink:href="imgs/potatohead_svg/potato_head_cropped21.png"/>
  <image id="red_nose" class="hide" data-type="nose" width="158" height="115" transform="translate(290.5 253.56)" xlink:href="imgs/potatohead_svg/potato_head_cropped28.png"/>
  <image id="pale_nose" class="hide" data-type="nose" width="137" height="154" transform="translate(301.5 234.56)" xlink:href="imgs/potatohead_svg/potato_head_cropped29.png"/>
</svg>
